<svg width="105" height="20" viewBox="0 0 105 20" fill="none" xmlns="http://www.w3.org/2000/svg">
<path d="M1.99698 19.9134C1.40883 19.9134 0.922974 19.7082 0.5394 19.2977C0.155827 18.8873 -0.0231743 18.387 0.00239734 17.797C0.0279689 17.2198 0.26131 16.7292 0.702419 16.3252C1.14353 15.9211 1.65176 15.7191 2.22712 15.7191C2.79609 15.7191 3.27875 15.9243 3.67511 16.3348C4.07787 16.7452 4.26006 17.2326 4.22171 17.797C4.19614 18.1946 4.07467 18.5538 3.85731 18.8745C3.64635 19.1951 3.37785 19.4485 3.05181 19.6344C2.72577 19.8204 2.37416 19.9134 1.99698 19.9134Z" fill="#3FE897"/>
<path d="M14.0353 20C13.102 20 12.2613 19.8333 11.5133 19.4998C10.7718 19.1599 10.1836 18.6596 9.74891 17.999C9.32058 17.3385 9.10642 16.524 9.10642 15.5556C9.10642 14.7218 9.25985 14.0324 9.56671 13.4873C9.87357 12.9421 10.2923 12.506 10.8229 12.1789C11.3535 11.8519 11.9513 11.6049 12.6161 11.4382C13.2874 11.265 13.981 11.14 14.697 11.063C15.56 10.9732 16.2601 10.8931 16.7971 10.8225C17.3341 10.7456 17.724 10.6301 17.967 10.4762C18.2163 10.3159 18.341 10.0689 18.341 9.73545V9.67773C18.341 8.95302 18.1268 8.39186 17.6985 7.99423C17.2701 7.5966 16.6532 7.39779 15.8477 7.39779C14.9975 7.39779 14.323 7.58377 13.8244 7.95575C13.3321 8.32772 12.9997 8.76704 12.8271 9.27369L9.58589 8.81193C9.8416 7.91406 10.2635 7.1637 10.8517 6.56085C11.4398 5.95158 12.159 5.49623 13.0093 5.1948C13.8595 4.88696 14.7993 4.73305 15.8285 4.73305C16.5382 4.73305 17.2446 4.81642 17.9478 4.98316C18.651 5.14991 19.2935 5.42568 19.8753 5.81048C20.457 6.18887 20.9237 6.70515 21.2753 7.35931C21.6333 8.01347 21.8123 8.83117 21.8123 9.81241V19.7018H18.4752V17.672H18.3601C18.1492 18.0824 17.8519 18.4672 17.4683 18.8264C17.0911 19.1791 16.6149 19.4645 16.0395 19.6825C15.4705 19.8942 14.8025 20 14.0353 20ZM14.9367 17.4411C15.6336 17.4411 16.2377 17.3032 16.7491 17.0274C17.2606 16.7452 17.6537 16.3733 17.9286 15.9115C18.2099 15.4497 18.3505 14.9463 18.3505 14.4012V12.6599C18.2419 12.7497 18.0565 12.8331 17.7944 12.9101C17.5386 12.987 17.251 13.0544 16.9313 13.1121C16.6117 13.1698 16.2952 13.2211 15.982 13.266C15.6687 13.3109 15.397 13.3494 15.1669 13.3814C14.6491 13.452 14.1856 13.5674 13.7764 13.7278C13.3673 13.8881 13.0444 14.1126 12.8079 14.4012C12.5714 14.6833 12.4531 15.0489 12.4531 15.4978C12.4531 16.1392 12.6864 16.6234 13.1531 16.9505C13.6198 17.2775 14.2143 17.4411 14.9367 17.4411Z" fill="#0F1527"/>
<path d="M29.8543 0V19.7018H26.383V0H29.8543Z" fill="#0F1527"/>
<path d="M67.0098 20C66.0765 20 65.2358 19.8333 64.4878 19.4998C63.7463 19.1599 63.1581 18.6596 62.7234 17.999C62.2951 17.3385 62.0809 16.524 62.0809 15.5556C62.0809 14.7218 62.2343 14.0324 62.5412 13.4873C62.8481 12.9421 63.2668 12.506 63.7974 12.1789C64.328 11.8519 64.9258 11.6049 65.5906 11.4382C66.2619 11.265 66.9555 11.14 67.6715 11.063C68.5345 10.9732 69.2346 10.8931 69.7716 10.8225C70.3086 10.7456 70.6985 10.6301 70.9415 10.4762C71.1908 10.3159 71.3155 10.0689 71.3155 9.73545V9.67773C71.3155 8.95302 71.1013 8.39186 70.673 7.99423C70.2446 7.5966 69.6277 7.39779 68.8222 7.39779C67.972 7.39779 67.2975 7.58377 66.7989 7.95575C66.3066 8.32772 65.9742 8.76704 65.8016 9.27369L62.5604 8.81193C62.8161 7.91406 63.238 7.1637 63.8262 6.56085C64.4143 5.95158 65.1335 5.49623 65.9838 5.1948C66.834 4.88696 67.7738 4.73305 68.803 4.73305C69.5126 4.73305 70.2191 4.81642 70.9223 4.98316C71.6255 5.14991 72.268 5.42568 72.8497 5.81048C73.4315 6.18887 73.8982 6.70515 74.2498 7.35931C74.6078 8.01347 74.7868 8.83117 74.7868 9.81241V19.7018H71.4497V17.672H71.3346C71.1237 18.0824 70.8264 18.4672 70.4428 18.8264C70.0656 19.1791 69.5894 19.4645 69.014 19.6825C68.445 19.8942 67.777 20 67.0098 20ZM67.9112 17.4411C68.6081 17.4411 69.2122 17.3032 69.7236 17.0274C70.235 16.7452 70.6282 16.3733 70.9031 15.9115C71.1844 15.4497 71.325 14.9463 71.325 14.4012V12.6599C71.2164 12.7497 71.031 12.8331 70.7689 12.9101C70.5131 12.987 70.2255 13.0544 69.9058 13.1121C69.5862 13.1698 69.2697 13.2211 68.9565 13.266C68.6432 13.3109 68.3715 13.3494 68.1414 13.3814C67.6236 13.452 67.1601 13.5674 66.7509 13.7278C66.3418 13.8881 66.0189 14.1126 65.7824 14.4012C65.5459 14.6833 65.4276 15.0489 65.4276 15.4978C65.4276 16.1392 65.6609 16.6234 66.1276 16.9505C66.5943 17.2775 67.1888 17.4411 67.9112 17.4411Z" fill="#0F1527"/>
<path d="M79.3575 19.7018V4.92544H82.6754V7.43627H82.848C83.1548 6.58971 83.6631 5.92913 84.3727 5.45455C85.0823 4.97354 85.9293 4.73305 86.9138 4.73305C87.9111 4.73305 88.7518 4.97675 89.4359 5.46417C90.1263 5.94517 90.6121 6.60253 90.8934 7.43627H91.0469C91.3729 6.61536 91.9227 5.9612 92.6962 5.47379C93.4762 4.97996 94.3999 4.73305 95.4675 4.73305C96.8228 4.73305 97.9288 5.16274 98.7855 6.02213C99.6421 6.88151 100.07 8.13532 100.07 9.78355V19.7018H96.5895V10.3223C96.5895 9.40516 96.3466 8.73497 95.8607 8.31169C95.3748 7.88199 94.7803 7.66715 94.0771 7.66715C93.2396 7.66715 92.5844 7.93009 92.1113 8.45599C91.6446 8.97547 91.4113 9.65208 91.4113 10.4858V19.7018H88.007V10.178C88.007 9.41478 87.7769 8.80551 87.3166 8.35017C86.8627 7.89482 86.2682 7.66715 85.533 7.66715C85.0343 7.66715 84.5804 7.79541 84.1713 8.05195C83.7622 8.30207 83.4361 8.65801 83.1932 9.11977C82.9503 9.57512 82.8288 10.1074 82.8288 10.7167V19.7018H79.3575Z" fill="#0F1527"/>
<path fill-rule="evenodd" clip-rule="evenodd" d="M41.8591 7.61905V4.92544H38.9535V1.38528H35.4822V4.92544H33.3917V7.61905H35.4822V15.8345C35.4758 16.7581 35.674 17.5277 36.0767 18.1433C36.4859 18.759 37.0389 19.2144 37.7357 19.5094C38.4325 19.798 39.2156 19.9295 40.0851 19.9038C40.5773 19.891 40.9929 19.8461 41.3317 19.7691C41.6769 19.6922 41.9422 19.6216 42.1276 19.5575L41.5427 16.835C41.4468 16.8607 41.3061 16.8895 41.1207 16.9216C40.9417 16.9537 40.7435 16.9697 40.5262 16.9697C40.2385 16.9697 39.9764 16.9248 39.7399 16.835C39.5033 16.7452 39.3115 16.5785 39.1645 16.3348C39.0238 16.0847 38.9535 15.7255 38.9535 15.2573V7.61905H41.8591ZM38.9535 7.61905V4.92544H35.4822V7.61905H38.9535Z" fill="#0F1527"/>
<path d="M38.9535 7.61905V4.92544H35.4822V7.61905H38.9535Z" fill="#0F1527"/>
<path fill-rule="evenodd" clip-rule="evenodd" d="M48.3788 19.0669C49.4528 19.6825 50.7282 19.9904 52.2049 19.9904C53.3493 19.9904 54.3657 19.8172 55.2544 19.4709C56.143 19.1182 56.8718 18.6243 57.4407 17.9894C58.0161 17.3481 58.4061 16.5977 58.6106 15.7383L55.3694 15.3728C55.216 15.7896 54.989 16.1392 54.6886 16.4214C54.3881 16.7035 54.0333 16.9184 53.6242 17.0659C53.215 17.207 52.7579 17.2775 52.2529 17.2775C51.4985 17.2775 50.8401 17.1172 50.2775 16.7965C49.7149 16.4695 49.277 16.0013 48.9637 15.392C48.6611 14.7971 48.5046 14.0884 48.4944 13.266H58.7545V12.1982C58.7545 10.9027 58.5755 9.78676 58.2175 8.85041C57.8595 7.90765 57.3672 7.13163 56.7407 6.52237C56.1206 5.9131 55.4046 5.46417 54.5927 5.17556C53.7872 4.88055 52.9305 4.73305 52.0227 4.73305C50.6163 4.73305 49.3921 5.05692 48.35 5.70467C47.308 6.346 46.4961 7.24387 45.9143 8.39827C45.339 9.54626 45.0513 10.8802 45.0513 12.4002C45.0513 13.9458 45.339 15.2894 45.9143 16.431C46.4897 17.5661 47.3112 18.4448 48.3788 19.0669ZM48.5009 10.9187H55.427C55.4206 10.2517 55.2767 9.65849 54.9954 9.13901C54.7142 8.61312 54.321 8.19945 53.816 7.89803C53.3173 7.5966 52.7356 7.44589 52.0707 7.44589C51.3611 7.44589 50.7378 7.61905 50.2008 7.96537C49.6638 8.30527 49.245 8.75421 48.9446 9.31217C48.6822 9.80429 48.5343 10.3398 48.5009 10.9187ZM48.4939 11.1304V13.1794C48.4939 13.2063 48.494 13.233 48.4943 13.2596C48.4944 13.2617 48.4944 13.2639 48.4944 13.266H46.6815V10.9187H48.5009C48.4969 10.9886 48.4946 11.0592 48.4939 11.1304Z" fill="#0F1527"/>
<path d="M46.6815 10.9187V13.266H48.4944L48.4943 13.2596C48.494 13.233 48.4939 13.2063 48.4939 13.1794V11.1304C48.4946 11.0592 48.4969 10.9886 48.5009 10.9187H46.6815Z" fill="#0F1527"/>
<path d="M102.487 7.36232L102.755 5.73494H103.557C103.648 5.73494 103.732 5.75552 103.808 5.79668C103.886 5.83638 103.944 5.89591 103.984 5.9753C104.025 6.05468 104.035 6.15244 104.015 6.26858C103.994 6.38471 103.949 6.48395 103.881 6.56627C103.813 6.64712 103.733 6.70887 103.641 6.7515C103.549 6.79413 103.456 6.81545 103.362 6.81545H102.801L102.85 6.52217H103.313C103.369 6.52217 103.426 6.50085 103.483 6.45822C103.54 6.41412 103.575 6.3509 103.588 6.26858C103.601 6.18037 103.586 6.11863 103.542 6.08335C103.498 6.04807 103.45 6.03043 103.397 6.03043H103.107L102.887 7.36232H102.487ZM103.63 6.60596L103.887 7.36232H103.448L103.21 6.60596H103.63ZM103.241 8.33257C102.998 8.33257 102.77 8.28699 102.557 8.19585C102.345 8.1047 102.158 7.97828 101.997 7.81657C101.836 7.65486 101.71 7.46743 101.619 7.25427C101.528 7.0411 101.482 6.81251 101.482 6.56847C101.482 6.32444 101.528 6.09584 101.619 5.88268C101.71 5.66952 101.835 5.48209 101.995 5.32038C102.156 5.15867 102.343 5.03224 102.555 4.9411C102.769 4.84995 102.998 4.80438 103.241 4.80438C103.483 4.80438 103.71 4.84995 103.922 4.9411C104.136 5.03224 104.324 5.15867 104.485 5.32038C104.646 5.48209 104.772 5.66952 104.863 5.88268C104.954 6.09584 104.999 6.32444 104.999 6.56847C104.999 6.81251 104.953 7.0411 104.861 7.25427C104.77 7.46743 104.644 7.65486 104.483 7.81657C104.322 7.97828 104.135 8.1047 103.922 8.19585C103.71 8.28699 103.483 8.33257 103.241 8.33257ZM103.241 7.88052C103.481 7.88052 103.7 7.82172 103.898 7.70411C104.096 7.58503 104.253 7.42626 104.371 7.2278C104.489 7.02934 104.549 6.80957 104.549 6.56847C104.549 6.32738 104.489 6.10761 104.371 5.90915C104.253 5.70921 104.096 5.55045 103.898 5.43284C103.7 5.31523 103.481 5.25643 103.241 5.25643C102.999 5.25643 102.779 5.31523 102.581 5.43284C102.384 5.55045 102.226 5.70921 102.109 5.90915C101.992 6.10761 101.932 6.32738 101.931 6.56847C101.931 6.80957 101.989 7.02934 102.107 7.2278C102.225 7.42626 102.384 7.58503 102.581 7.70411C102.779 7.82172 102.999 7.88052 103.241 7.88052Z" fill="#0F1527"/>
</svg>
