<svg width="40" height="40" viewBox="0 0 40 40" fill="none" xmlns="http://www.w3.org/2000/svg">
<path d="M11.25 10V3.75L3.75 11.25H10C10.3315 11.25 10.6495 11.1183 10.8839 10.8839C11.1183 10.6495 11.25 10.3315 11.25 10Z" fill="#3FE897"/>
<path d="M5 37.5H23.9773C22.1244 36.5007 20.6423 34.9317 19.75 33.025C19.0826 31.6994 18.7398 30.2341 18.75 28.75C18.7496 27.4367 19.008 26.1362 19.5105 24.9227C20.0129 23.7093 20.7495 22.6068 21.6781 21.6781C22.6068 20.7495 23.7093 20.0129 24.9227 19.5105C26.1362 19.008 27.4367 18.7496 28.75 18.75C30.0404 18.762 31.3154 19.032 32.5 19.544V5C32.4981 4.33755 32.2341 3.70277 31.7657 3.23435C31.2972 2.76592 30.6625 2.50191 30 2.5H13.75V10C13.7489 10.9942 13.3534 11.9474 12.6504 12.6504C11.9474 13.3534 10.9942 13.7489 10 13.75H2.5V35C2.50191 35.6625 2.76592 36.2972 3.23435 36.7657C3.70277 37.2341 4.33755 37.4981 5 37.5Z" fill="#0F1527"/>
<path d="M31.9755 22.0001C30.9744 21.4999 29.8695 21.2429 28.7505 21.2501C26.7631 21.256 24.8588 22.048 23.4536 23.4533C22.0483 24.8585 21.2563 26.7628 21.2505 28.7501C21.2375 29.8538 21.495 30.9439 22.0005 31.9251C22.5961 33.2146 23.548 34.3069 24.744 35.0732C25.9399 35.8395 27.3301 36.2479 28.7505 36.2501C29.4699 36.2575 30.1862 36.1564 30.8755 35.9501L31.0255 35.8751C32.4578 35.4241 33.7208 34.5518 34.6498 33.372C35.5788 32.1922 36.1306 30.7598 36.2332 29.2617C36.3358 27.7636 35.9844 26.2693 35.2248 24.9739C34.4653 23.6785 33.3329 22.6422 31.9755 22.0001ZM32.5005 30.0001H30.0005V32.5001C30.0005 32.8317 29.8688 33.1496 29.6344 33.384C29.3999 33.6185 29.082 33.7501 28.7505 33.7501C28.4189 33.7501 28.101 33.6185 27.8666 33.384C27.6322 33.1496 27.5005 32.8317 27.5005 32.5001V30.0001H25.0005C24.6689 30.0001 24.351 29.8685 24.1166 29.634C23.8822 29.3996 23.7505 29.0817 23.7505 28.7501C23.7505 28.4186 23.8822 28.1007 24.1166 27.8663C24.351 27.6318 24.6689 27.5001 25.0005 27.5001H27.5005V25.0001C27.5005 24.6686 27.6322 24.3507 27.8666 24.1163C28.101 23.8818 28.4189 23.7501 28.7505 23.7501C29.082 23.7501 29.3999 23.8818 29.6344 24.1163C29.8688 24.3507 30.0005 24.6686 30.0005 25.0001V27.5001H32.5005C32.832 27.5001 33.1499 27.6318 33.3844 27.8663C33.6188 28.1007 33.7505 28.4186 33.7505 28.7501C33.7505 29.0817 33.6188 29.3996 33.3844 29.634C33.1499 29.8685 32.832 30.0001 32.5005 30.0001Z" fill="#3FE897"/>
</svg>
