<svg width="60" height="60" viewBox="0 0 60 60" fill="none" xmlns="http://www.w3.org/2000/svg">
<path d="M45.7343 49.494C46.3041 49.4949 46.8524 49.712 47.2683 50.1014C47.6843 50.4909 47.9371 51.0236 47.9755 51.5921C48.014 52.1606 47.8353 52.7226 47.4756 53.1645C47.1158 53.6064 46.6018 53.8953 46.0373 53.973L45.7343 53.994H14.2493C13.6792 53.9938 13.1305 53.7773 12.7139 53.3881C12.2974 52.9989 12.0441 52.4661 12.0052 51.8974C11.9664 51.3286 12.1449 50.7663 12.5046 50.3241C12.8644 49.8819 13.3786 49.5927 13.9433 49.515L14.2493 49.494H45.7343ZM30.0113 6C30.555 6.00002 31.0803 6.19693 31.4901 6.5543C31.8999 6.91167 32.1664 7.40534 32.2403 7.944L32.2613 8.25L32.2583 38.829L41.1563 29.919C41.5371 29.5367 42.0425 29.304 42.5806 29.2632C43.1186 29.2225 43.6533 29.3764 44.0873 29.697L44.3393 29.913C44.7212 30.2941 44.9533 30.7998 44.9935 31.3378C45.0337 31.8758 44.8793 32.4103 44.5583 32.844L44.3423 33.096L31.6133 45.846L31.4033 46.035L31.1273 46.212L31.0193 46.275L30.7463 46.389L30.3863 46.479L30.1763 46.503L29.9963 46.509C29.8451 46.5087 29.6942 46.4926 29.5463 46.461L29.3003 46.392C29.0163 46.2997 28.754 46.1507 28.5293 45.954L15.6593 33.099C15.2557 32.698 15.019 32.159 14.9968 31.5905C14.9746 31.022 15.1686 30.4663 15.5397 30.035C15.9108 29.6038 16.4316 29.3292 16.997 29.2665C17.5625 29.2038 18.1307 29.3576 18.5873 29.697L18.8393 29.916L27.7583 38.817V8.25C27.7583 7.65326 27.9954 7.08097 28.4173 6.65901C28.8393 6.23705 29.4116 6 30.0083 6H30.0113Z" fill="#CFD0D4"/>
</svg>
