<svg width="41" height="40" viewBox="0 0 41 40" fill="none" xmlns="http://www.w3.org/2000/svg">
<g clip-path="url(#clip0_2351_125680)">
<path d="M34.7316 21.3398H30.6713C27.4901 21.3398 24.8848 23.9339 24.8848 27.1151V33.483C24.8848 35.3917 26.4548 36.9552 28.3636 36.9552H37.0392C38.948 36.9552 40.5002 35.3917 40.5002 33.483V27.1151C40.5002 23.9338 37.9127 21.3398 34.7316 21.3398Z" fill="#0F1527"/>
<path d="M32.7015 9.50977C29.8404 9.50977 27.5127 11.8375 27.5127 14.6986C27.5127 17.5598 29.8404 19.8875 32.7015 19.8875C35.5627 19.8875 37.8904 17.5598 37.8904 14.6986C37.8904 11.8376 35.5627 9.50977 32.7015 9.50977Z" fill="#0F1527"/>
<path d="M10.3467 21.3398H6.28648C3.10531 21.3398 0.5 23.9338 0.5 27.115V33.483C0.5 35.3916 2.07008 36.9552 3.97883 36.9552H12.6545C14.5632 36.9552 16.1154 35.3916 16.1154 33.483V27.115C16.1154 23.9338 13.528 21.3398 10.3467 21.3398Z" fill="#0F1527"/>
<path d="M24.0334 18.3418H16.9675C13.7863 18.3418 11.1982 20.9298 11.1982 24.111V35.7923C11.1982 36.4296 11.7149 36.9462 12.3521 36.9462H28.6488C29.2861 36.9462 29.8026 36.4296 29.8026 35.7923V24.111C29.8026 20.9298 27.2146 18.3418 24.0334 18.3418Z" fill="#3FE897"/>
<path d="M20.4998 3.04297C16.674 3.04297 13.5615 6.15547 13.5615 9.98125C13.5615 13.807 16.6739 16.9195 20.4998 16.9195C24.3257 16.9195 27.4381 13.807 27.4381 9.98125C27.4381 6.15547 24.3256 3.04297 20.4998 3.04297Z" fill="#3FE897"/>
<path d="M8.31676 9.50977C5.45559 9.50977 3.12793 11.8375 3.12793 14.6986C3.12793 17.5598 5.45559 19.8875 8.31676 19.8875C11.1779 19.8875 13.5056 17.5598 13.5056 14.6986C13.5056 11.8376 11.1779 9.50977 8.31676 9.50977Z" fill="#0F1527"/>
</g>
<defs>
<clipPath id="clip0_2351_125680">
<rect width="40" height="40" fill="white" transform="translate(0.5)"/>
</clipPath>
</defs>
</svg>
