<svg width="41" height="40" viewBox="0 0 41 40" fill="none" xmlns="http://www.w3.org/2000/svg">
<g clip-path="url(#clip0_3501_131902)">
<path d="M17.5662 10.2168L30.4509 23.1015L21.5341 32.0184C22.2522 32.0961 22.9498 32.4095 23.5006 32.9603C24.8373 34.2971 24.7801 36.5005 23.3284 37.7632C22.1073 38.8252 20.2608 38.8276 19.0373 37.7695C18.3751 37.1969 18.0021 36.4296 17.9163 35.6364L13.7439 39.8087C13.4891 40.0635 13.0759 40.0635 12.821 39.8087L9.3301 36.3178C9.05346 36.0411 9.15041 35.5723 9.51416 35.4262C9.91268 35.2664 10.2863 35.0246 10.609 34.7019C11.8917 33.4193 11.891 31.3408 10.609 30.0588C9.32698 28.7768 7.24854 28.7761 5.96589 30.0588C5.64323 30.3814 5.40136 30.7551 5.24159 31.1536C5.0955 31.5174 4.62667 31.6143 4.35003 31.3377L0.859101 27.8467C0.604258 27.5918 0.604258 27.1786 0.859101 26.9238L5.03144 22.7515C4.31269 22.6743 3.61574 22.3604 3.06488 21.8095C1.72816 20.4728 1.78535 18.2694 3.23707 17.0066C4.45816 15.9447 6.30472 15.9423 7.52823 17.0004C8.19042 17.573 8.56338 18.3402 8.64924 19.1336L17.5662 10.2168Z" fill="#3FE897"/>
<path d="M38.4325 18.3664C37.8621 17.7048 37.0975 17.331 36.3069 17.2428L40.4739 13.0758C40.7288 12.821 40.7288 12.4077 40.4739 12.1529L36.3023 7.98127C37.0951 7.89549 37.8627 7.52245 38.4353 6.86034C39.4935 5.63636 39.491 3.79019 38.4294 2.56918C37.1667 1.11699 34.9629 1.05949 33.6257 2.39675C33.0752 2.9473 32.7618 3.6448 32.684 4.363L28.5122 0.191132C28.2573 -0.0637108 27.8441 -0.0637108 27.5893 0.191132L24.0985 3.68191C23.8215 3.95886 23.9188 4.42722 24.2822 4.57323C24.6809 4.73347 25.0545 4.97511 25.3773 5.29784C26.66 6.5805 26.6594 8.65893 25.3773 9.94096C24.0953 11.223 22.0169 11.2236 20.7342 9.94096C20.4115 9.61822 20.1698 9.24455 20.0096 8.84588C19.8635 8.48244 19.3952 8.38518 19.1183 8.66213L15.166 12.6144L19.0088 16.4572C19.3329 16.7813 19.2298 17.3274 18.8116 17.5145C18.387 17.7045 17.9947 17.9891 17.6664 18.3688C16.6081 19.5927 16.6107 21.439 17.6724 22.6599C18.9351 24.112 21.1388 24.1694 22.476 22.8323C22.7676 22.5407 22.9926 22.2079 23.1514 21.8527C23.3381 21.4348 23.8846 21.333 24.2082 21.6566L28.0508 25.4991L32.6792 20.8707C32.7589 21.5851 33.0718 22.2784 33.6196 22.8262C34.9568 24.1634 37.1607 24.1059 38.4233 22.6536C39.4837 21.4339 39.4876 19.5905 38.4325 18.3664Z" fill="#0F1527"/>
</g>
<defs>
<clipPath id="clip0_3501_131902">
<rect width="40" height="40" fill="white" transform="translate(0.666016)"/>
</clipPath>
</defs>
</svg>
