<svg width="964" height="964" viewBox="0 0 964 964" fill="none" xmlns="http://www.w3.org/2000/svg">
<g opacity="0.03" clip-path="url(#clip0_258_20107)">
<path d="M543.832 814.768C544.506 814.645 545.169 814.467 545.822 814.243C545.935 814.205 546.046 814.167 546.154 814.126C546.83 813.879 547.491 813.585 548.129 813.235C548.151 813.224 548.172 813.216 548.195 813.205C548.296 813.151 548.387 813.083 548.487 813.022C548.761 812.862 549.034 812.695 549.302 812.514C549.486 812.388 549.66 812.252 549.835 812.122C550.025 811.978 550.221 811.833 550.409 811.676C550.637 811.49 550.851 811.285 551.07 811.079C551.168 810.989 551.269 810.908 551.365 810.814C551.437 810.739 551.501 810.673 551.571 810.601C551.586 810.586 551.601 810.571 551.612 810.562C758.642 603.415 732.268 489.021 731.044 484.251C729.078 476.602 721.274 471.981 713.617 473.947C705.959 475.911 701.344 483.715 703.312 491.372C703.368 491.6 486.267 672.254 486.267 672.254C482.436 665.342 473.714 662.851 466.803 666.692C459.889 670.533 457.4 679.249 461.241 686.157L528.555 807.338C528.561 807.35 528.57 807.365 528.576 807.376L528.725 807.645C528.755 807.7 528.798 807.751 528.832 807.805C529.084 808.25 529.365 808.677 529.672 809.099C529.768 809.229 529.858 809.364 529.956 809.487C530.282 809.905 530.628 810.307 531.003 810.692C531.046 810.731 531.08 810.786 531.121 810.825C531.153 810.855 531.193 810.876 531.225 810.912C531.686 811.366 532.178 811.772 532.686 812.149C532.81 812.243 532.933 812.339 533.062 812.428C533.614 812.812 534.187 813.158 534.776 813.459C534.851 813.497 534.926 813.525 535.002 813.565C535.599 813.855 536.212 814.101 536.836 814.303C536.892 814.322 536.949 814.342 537.003 814.361C537.655 814.561 538.312 814.709 538.98 814.811C539.108 814.834 539.24 814.853 539.368 814.866C540.029 814.956 540.69 815.003 541.353 814.999C541.454 814.999 541.552 814.988 541.654 814.984C542.271 814.966 542.891 814.909 543.505 814.809C543.621 814.798 543.725 814.789 543.832 814.768Z" fill="#0F1527"/>
<path d="M297.312 497.197C301.154 490.285 298.66 481.562 291.75 477.733C291.75 477.733 472.558 260.665 472.814 260.723L472.63 260.676L479.75 232.946C474.978 231.719 360.595 205.358 153.45 412.388C153.436 412.403 153.421 412.418 153.41 412.427C153.337 412.499 153.269 412.565 153.199 412.636C153.101 412.734 153.024 412.834 152.93 412.934C152.727 413.147 152.523 413.363 152.333 413.595C152.177 413.781 152.034 413.975 151.889 414.169C151.759 414.344 151.621 414.521 151.497 414.702C151.316 414.967 151.151 415.238 150.989 415.515C150.932 415.617 150.863 415.709 150.806 415.809C150.793 415.831 150.787 415.852 150.774 415.875C150.422 416.513 150.132 417.168 149.887 417.839C149.846 417.955 149.804 418.07 149.767 418.187C149.546 418.84 149.366 419.495 149.245 420.166C149.223 420.279 149.213 420.39 149.196 420.505C149.1 421.107 149.042 421.721 149.027 422.331C149.021 422.436 149.01 422.544 149.008 422.647C149.004 423.312 149.053 423.967 149.142 424.622C149.159 424.756 149.177 424.888 149.196 425.021C149.304 425.69 149.449 426.345 149.648 426.993C149.665 427.051 149.688 427.109 149.705 427.164C149.906 427.791 150.155 428.397 150.443 428.994C150.48 429.073 150.512 429.147 150.552 429.222C150.849 429.815 151.198 430.38 151.582 430.935C151.674 431.065 151.766 431.189 151.86 431.316C152.241 431.82 152.647 432.31 153.101 432.775C153.131 432.809 153.152 432.841 153.186 432.877C153.226 432.916 153.278 432.952 153.32 432.993C153.706 433.37 154.109 433.716 154.523 434.042C154.649 434.14 154.781 434.232 154.913 434.324C155.332 434.633 155.762 434.914 156.204 435.166C156.261 435.2 156.31 435.241 156.366 435.271L156.633 435.42C156.647 435.428 156.658 435.431 156.671 435.443L277.843 502.755C284.755 506.598 293.472 504.109 297.312 497.197Z" fill="#0F1527"/>
<path d="M240.792 574.478C236.81 570.496 235.531 564.55 237.527 559.281C275.245 459.743 419.533 281.264 504.849 195.946C641.181 59.6132 786.747 -4.40428 949.861 0.23497C957.448 0.451494 963.549 6.55181 963.763 14.1377C968.406 177.249 904.389 322.813 768.053 459.152C682.737 544.468 504.261 688.757 404.724 726.475C399.456 728.469 393.51 727.191 389.528 723.209L240.792 574.478Z" fill="#3FE897"/>
<path d="M963.76 14.136C963.546 6.54831 957.444 0.449876 949.858 0.233353C940.975 -0.0208269 932.154 -0.0321238 923.374 0.12415C920.68 152.566 856.463 289.738 727.552 418.653C642.236 503.969 463.759 648.258 364.222 685.973C358.956 687.97 353.008 686.692 349.026 682.71L240.779 574.469C240.783 574.469 240.785 574.472 240.789 574.476L389.523 723.205C393.505 727.187 399.451 728.466 404.72 726.472C504.256 688.753 682.732 544.464 768.048 459.148C904.386 322.814 968.403 177.25 963.76 14.136Z" fill="#3FE897"/>
<path d="M269.456 495.15C255.722 518.59 244.697 540.366 237.527 559.283C235.531 564.551 236.81 570.497 240.792 574.479L389.526 723.208C393.509 727.19 399.454 728.469 404.723 726.475C423.639 719.305 445.414 708.281 468.853 694.546L269.456 495.15Z" fill="#0F1527"/>
<path d="M10.3083 953.698C-2.72454 940.665 -3.38729 918.173 8.27861 884.936C16.6214 861.165 31.2 831.688 51.6021 797.336C86.7335 738.182 132.492 676.285 153.186 655.594C173.913 634.863 201.48 623.445 230.795 623.445C260.11 623.445 287.677 634.861 308.406 655.594C351.199 698.387 351.199 768.017 308.408 810.813C287.707 831.513 225.813 877.269 166.665 912.4C132.307 932.803 102.837 947.377 79.0686 955.726C45.8294 967.39 23.3373 966.729 10.3083 953.698Z" fill="#0F1527"/>
<path d="M308.406 655.593C301.457 648.643 293.728 642.767 285.434 637.992C309.539 679.932 303.71 734.511 267.91 770.316C247.211 791.012 185.315 836.768 126.169 871.9C91.811 892.304 62.3394 906.88 38.5707 915.229C23.5723 920.493 10.7842 923.223 0.0446319 923.464C-0.247204 936.525 3.15504 946.546 10.306 953.7C23.335 966.729 45.8271 967.39 79.0663 955.726C102.833 947.38 132.307 932.801 166.662 912.401C225.811 877.271 287.706 831.513 308.406 810.814C351.199 768.017 351.199 698.385 308.406 655.593Z" fill="#0F1527"/>
<path d="M335.403 628.602C329.811 623.01 320.747 623.01 315.157 628.602L305.037 638.72L325.283 658.964L335.403 648.846C340.991 643.252 340.991 634.19 335.403 628.602Z" fill="#0F1527"/>
<path d="M281.409 574.608C275.819 569.016 266.755 569.016 261.163 574.608L251.045 584.726L271.291 604.974L281.409 594.852C287.001 589.264 287.001 580.202 281.409 574.608Z" fill="#0F1527"/>
<path d="M499.583 464.419C486.963 451.804 480.01 435.022 480.01 417.179C480.01 399.332 486.961 382.554 499.582 369.935C512.196 357.32 528.974 350.369 546.82 350.365C564.667 350.365 581.444 357.315 594.061 369.931C606.678 382.55 613.631 399.332 613.631 417.175C613.633 435.022 606.682 451.804 594.059 464.419C568.012 490.467 525.634 490.467 499.583 464.419Z" fill="#0F1527"/>
<path d="M661.565 302.429C635.515 276.382 635.515 233.996 661.565 207.949C687.614 181.902 730 181.902 756.045 207.949C768.663 220.568 775.617 237.346 775.619 255.193C775.619 273.036 768.667 289.818 756.047 302.436C730.002 328.481 687.616 328.481 661.565 302.429Z" fill="#0F1527"/>
<path d="M95.5355 868.466C84.3761 857.307 91.5138 839.556 99.9657 823.657C106.923 810.577 117.668 793.854 131.902 773.949C156.192 739.985 185.169 704.594 193.677 696.085C214.145 675.617 247.446 675.617 267.914 696.085C288.383 716.55 288.383 749.853 267.914 770.323C259.404 778.835 224.009 807.813 190.055 832.098C170.149 846.332 153.428 857.077 140.345 864.032C124.45 872.488 106.697 879.624 95.5355 868.466Z" fill="#3FE897"/>
<path d="M949.859 0.235426C892.396 -1.39697 837.122 5.52801 783.652 21.0951L942.904 180.349C958.471 126.879 965.396 71.5997 963.762 14.1381C963.548 6.55226 957.447 0.450066 949.859 0.235426Z" fill="#0F1527"/>
<path d="M410.278 724.283C411.334 723.857 412.392 723.415 413.466 722.967C413.925 722.773 414.384 722.579 414.848 722.385C416.1 721.848 417.359 721.3 418.63 720.741C418.869 720.632 419.101 720.538 419.34 720.429C420.809 719.775 422.29 719.101 423.783 718.41C424.305 718.171 424.832 717.925 425.354 717.676C426.368 717.203 427.393 716.721 428.421 716.23C429.021 715.94 429.628 715.652 430.23 715.358C431.275 714.854 432.326 714.338 433.38 713.814C433.92 713.545 434.457 713.289 435.001 713.016C436.458 712.285 437.925 711.544 439.403 710.787C440.139 710.41 440.883 710.019 441.625 709.635C442.463 709.198 443.306 708.763 444.152 708.315C444.98 707.88 445.81 707.439 446.644 706.991C447.415 706.581 448.188 706.166 448.962 705.75C449.834 705.281 450.706 704.811 451.587 704.331C451.924 704.148 452.267 703.954 452.607 703.768C454.697 702.619 456.804 701.444 458.932 700.249C459.512 699.925 460.088 699.595 460.671 699.268C461.741 698.661 462.808 698.048 463.883 697.43C464.409 697.129 464.938 696.824 465.463 696.517C466.589 695.864 467.715 695.212 468.85 694.549L428.353 654.054C404.914 667.783 383.141 678.813 364.222 685.979C358.956 687.977 353.008 686.698 349.026 682.716L240.789 574.482L389.524 723.211C393.506 727.194 399.452 728.472 404.72 726.478C406.124 725.945 407.554 725.382 408.99 724.808C409.419 724.633 409.849 724.456 410.278 724.283Z" fill="#0F1527"/>
<path d="M923.377 0.126248C922.528 48.1417 915.56 94.6434 902.408 139.848L942.906 180.347C943.804 177.269 944.662 174.181 945.502 171.089C945.681 170.425 945.856 169.754 946.035 169.092C948.46 160.024 950.631 150.906 952.563 141.734C952.798 140.62 953.03 139.505 953.257 138.391C953.82 135.628 954.37 132.863 954.888 130.087C955.087 129.016 955.27 127.935 955.464 126.866C956.302 122.219 957.078 117.565 957.791 112.894C958.064 111.103 958.341 109.314 958.595 107.522C958.919 105.24 959.23 102.958 959.523 100.668C959.811 98.4279 960.079 96.1836 960.34 93.9393C960.615 91.5914 960.883 89.2454 961.126 86.8938C961.481 83.4407 961.803 79.982 962.091 76.5138C962.236 74.7722 962.363 73.025 962.491 71.2796C962.7 68.397 962.892 65.5145 963.057 62.6262C963.144 61.12 963.238 59.6175 963.312 58.1112C963.521 53.8824 963.686 49.6442 963.799 45.3909C963.827 44.3064 963.837 43.2125 963.858 42.1243C963.929 38.6091 963.971 35.0882 963.974 31.5579C963.976 30.2607 963.978 28.9596 963.972 27.6624C963.95 23.1662 963.891 18.6588 963.763 14.1363C963.549 6.54852 957.447 0.450092 949.861 0.233569C940.976 -0.0187282 932.155 -0.0300251 923.377 0.126248Z" fill="#0F1527"/>
</g>
<defs>
<clipPath id="clip0_258_20107">
<rect width="964" height="964" fill="white"/>
</clipPath>
</defs>
</svg>
