<svg width="41" height="40" viewBox="0 0 41 40" fill="none" xmlns="http://www.w3.org/2000/svg">
<g clip-path="url(#clip0_2351_125661)">
<path d="M3.02193 4.30859H12.5882C13.2148 4.30859 13.7935 4.64326 14.1061 5.18616L15.6806 7.33704C15.9932 7.87995 16.572 8.21461 17.1984 8.21461H40.4999V32.7715C40.4999 34.0612 39.4543 35.1067 38.1646 35.1067H2.83529C1.54558 35.1067 0.5 34.0612 0.5 32.7715V10.9387C0.5 9.13361 0.778885 7.33926 1.32683 5.61931C1.52756 4.8474 2.22439 4.30859 3.02193 4.30859Z" fill="#0F1527"/>
<path d="M34.8863 7.8125H4.13965V20.8008H34.8863V7.8125Z" fill="#3FE897"/>
<path d="M38.7485 5.47656H29.1083C28.4228 5.47656 27.8002 5.87657 27.5153 6.50011L25.8657 10.1104C25.5807 10.734 24.9582 11.134 24.2726 11.134H0.5V33.3555C0.5 34.6452 1.54558 35.6908 2.83529 35.6908H38.1647C39.4544 35.6908 40.5 34.6452 40.5 33.3555V7.22803C40.5 6.26077 39.7158 5.47656 38.7485 5.47656Z" fill="#0F1527"/>
</g>
<defs>
<clipPath id="clip0_2351_125661">
<rect width="40" height="40" fill="white" transform="translate(0.5)"/>
</clipPath>
</defs>
</svg>
