<svg width="20" height="21" viewBox="0 0 20 21" fill="none" xmlns="http://www.w3.org/2000/svg">
<path d="M9.9974 18.8337C14.5998 18.8337 18.3307 15.1027 18.3307 10.5003C18.3307 5.89795 14.5998 2.16699 9.9974 2.16699C5.39502 2.16699 1.66406 5.89795 1.66406 10.5003C1.66406 15.1027 5.39502 18.8337 9.9974 18.8337Z" stroke="#6F737D" stroke-width="1.5" stroke-linecap="round" stroke-linejoin="round"/>
<path d="M6.67188 12.5919C6.82187 12.8419 7.0052 13.0753 7.21354 13.2836C8.74687 14.817 11.2385 14.817 12.7802 13.2836C13.4052 12.6586 13.7635 11.8669 13.8802 11.0586" stroke="#6F737D" stroke-width="1.5" stroke-linecap="round" stroke-linejoin="round"/>
<path d="M6.11719 9.94144C6.23385 9.12478 6.59219 8.34141 7.21719 7.71641C8.75053 6.18307 11.2422 6.18307 12.7839 7.71641C13.0005 7.93307 13.1755 8.16642 13.3255 8.40809" stroke="#6F737D" stroke-width="1.5" stroke-linecap="round" stroke-linejoin="round"/>
<path d="M6.51562 14.8168V12.5918H8.74061" stroke="#6F737D" stroke-width="1.5" stroke-linecap="round" stroke-linejoin="round"/>
<path d="M13.4828 6.18359V8.40858H11.2578" stroke="#6F737D" stroke-width="1.5" stroke-linecap="round" stroke-linejoin="round"/>
</svg>
