<svg width="61" height="60" viewBox="0 0 61 60" fill="none" xmlns="http://www.w3.org/2000/svg">
<g clip-path="url(#clip0_258_20088)">
<path d="M34.3486 50.7118C34.3906 50.7042 34.4318 50.6931 34.4725 50.6791C34.4795 50.6768 34.4864 50.6744 34.4931 50.6718C34.5352 50.6565 34.5763 50.6382 34.616 50.6164C34.6174 50.6157 34.6187 50.6152 34.6201 50.6145C34.6265 50.6111 34.6321 50.6069 34.6383 50.6032C34.6554 50.5932 34.6724 50.5828 34.689 50.5715C34.7005 50.5637 34.7113 50.5552 34.7222 50.5472C34.734 50.5381 34.7462 50.5291 34.7579 50.5194C34.7721 50.5078 34.7855 50.495 34.7991 50.4822C34.8052 50.4766 34.8115 50.4716 34.8175 50.4657C34.8219 50.461 34.8259 50.4569 34.8302 50.4525C34.8312 50.4515 34.8321 50.4506 34.8328 50.45C47.7185 37.557 46.077 30.4371 46.0008 30.1402C45.8785 29.6641 45.3927 29.3765 44.9161 29.4989C44.4395 29.6211 44.1523 30.1068 44.2747 30.5834C44.2783 30.5976 30.7657 41.8416 30.7657 41.8416C30.5272 41.4115 29.9844 41.2564 29.5542 41.4955C29.1239 41.7345 28.969 42.277 29.2081 42.707L33.3977 50.2494C33.3981 50.2501 33.3987 50.251 33.399 50.2517L33.4083 50.2685C33.4102 50.2719 33.4129 50.275 33.415 50.2784C33.4307 50.3061 33.4481 50.3327 33.4672 50.359C33.4732 50.367 33.4788 50.3755 33.4849 50.3831C33.5052 50.4091 33.5268 50.4342 33.5501 50.4581C33.5528 50.4606 33.5549 50.464 33.5575 50.4664C33.5595 50.4683 33.5619 50.4696 33.5639 50.4718C33.5926 50.5 33.6232 50.5254 33.6549 50.5488C33.6626 50.5547 33.6702 50.5606 33.6783 50.5661C33.7126 50.59 33.7483 50.6116 33.7849 50.6304C33.7896 50.6327 33.7943 50.6345 33.799 50.6369C33.8361 50.655 33.8743 50.6703 33.9131 50.6829C33.9167 50.684 33.9202 50.6853 33.9236 50.6865C33.9641 50.6989 34.005 50.7082 34.0466 50.7145C34.0546 50.7159 34.0628 50.7171 34.0708 50.7179C34.1119 50.7235 34.153 50.7265 34.1943 50.7262C34.2006 50.7262 34.2067 50.7255 34.213 50.7253C34.2515 50.7241 34.29 50.7206 34.3282 50.7144C34.3355 50.7137 34.3419 50.7131 34.3486 50.7118Z" fill="#0F1527"/>
<path d="M19.004 30.946C19.2431 30.5158 19.0879 29.9729 18.6578 29.7346C18.6578 29.7346 29.9114 16.2241 29.9274 16.2278L29.9159 16.2248L30.3591 14.4989C30.062 14.4225 22.9427 12.7817 10.0499 25.6674C10.0491 25.6684 10.0481 25.6693 10.0474 25.6699C10.0429 25.6744 10.0386 25.6785 10.0343 25.6829C10.0282 25.689 10.0234 25.6952 10.0176 25.7014C10.0049 25.7147 9.99224 25.7281 9.9804 25.7426C9.97068 25.7542 9.96177 25.7662 9.95275 25.7783C9.94466 25.7892 9.93611 25.8002 9.92837 25.8115C9.91712 25.828 9.90681 25.8449 9.89673 25.8621C9.89322 25.8684 9.88888 25.8742 9.88536 25.8804C9.88454 25.8818 9.88419 25.8831 9.88337 25.8845C9.86146 25.9242 9.84341 25.965 9.82818 26.0067C9.8256 26.014 9.82302 26.0211 9.82068 26.0284C9.80697 26.069 9.79572 26.1098 9.78822 26.1515C9.78681 26.1586 9.78622 26.1655 9.78517 26.1726C9.77919 26.2101 9.77556 26.2483 9.77462 26.2863C9.77427 26.2929 9.77357 26.2996 9.77345 26.306C9.77322 26.3474 9.77626 26.3881 9.78177 26.4289C9.78282 26.4372 9.784 26.4455 9.78517 26.4538C9.79185 26.4954 9.80087 26.5362 9.81329 26.5765C9.81435 26.5801 9.81576 26.5837 9.81681 26.5871C9.82935 26.6262 9.84482 26.6639 9.86275 26.701C9.86509 26.706 9.86708 26.7105 9.86954 26.7152C9.88806 26.7521 9.90974 26.7873 9.93365 26.8219C9.93939 26.8299 9.94513 26.8377 9.95099 26.8455C9.97466 26.8769 9.99997 26.9074 10.0282 26.9364C10.0301 26.9385 10.0314 26.9405 10.0335 26.9427C10.036 26.9451 10.0392 26.9474 10.0418 26.9499C10.0658 26.9734 10.0909 26.9949 10.1167 27.0152C10.1245 27.0213 10.1327 27.0271 10.141 27.0328C10.1671 27.052 10.1938 27.0695 10.2213 27.0852C10.2249 27.0873 10.2279 27.0899 10.2314 27.0917L10.2481 27.101C10.2489 27.1015 10.2496 27.1017 10.2504 27.1024L17.7922 31.292C18.2224 31.5312 18.765 31.3762 19.004 30.946Z" fill="#0F1527"/>
<path d="M15.4876 35.7559C15.2397 35.508 15.1602 35.1379 15.2844 34.8101C17.632 28.6147 26.6126 17.506 31.9227 12.1958C40.4081 3.71037 49.4682 -0.274125 59.6205 0.0146247C60.0928 0.0281013 60.4725 0.407789 60.4858 0.879937C60.7748 11.0321 56.7903 20.0921 48.3047 28.5779C42.9946 33.888 31.8861 42.8687 25.6909 45.2163C25.363 45.3404 24.9929 45.2608 24.7451 45.013L15.4876 35.7559Z" fill="#3FE897"/>
<path d="M60.4852 0.880452C60.4718 0.408187 60.092 0.0286165 59.6198 0.01514C59.067 -0.000680359 58.5179 -0.00138348 57.9715 0.00834308C57.8038 9.49643 53.8069 18.0341 45.7834 26.0578C40.4733 31.368 29.3647 40.3486 23.1695 42.696C22.8417 42.8203 22.4715 42.7408 22.2237 42.4929L15.4863 35.7559C15.4866 35.7559 15.4867 35.7562 15.4869 35.7564L24.7443 45.0134C24.9921 45.2612 25.3622 45.3408 25.6901 45.2167C31.8853 42.8691 42.9937 33.8884 48.3039 28.5783C56.7896 20.0928 60.7741 11.0328 60.4852 0.880452Z" fill="#3FE897"/>
<path d="M17.2717 30.8184C16.4169 32.2772 15.7306 33.6326 15.2844 34.81C15.1602 35.1379 15.2397 35.508 15.4876 35.7558L24.7449 45.0128C24.9928 45.2607 25.3629 45.3402 25.6908 45.2161C26.8681 44.7699 28.2234 44.0837 29.6823 43.2289L17.2717 30.8184Z" fill="#0F1527"/>
<path d="M1.14135 59.3598C0.330179 58.5487 0.288929 57.1487 1.01502 55.08C1.53428 53.6005 2.44166 51.7659 3.71151 49.6278C5.89811 45.946 8.74612 42.0934 10.0341 40.8057C11.3242 39.5153 13.04 38.8047 14.8646 38.8047C16.6892 38.8047 18.4049 39.5152 19.6952 40.8057C22.3586 43.4691 22.3586 47.8029 19.6953 50.4666C18.4068 51.755 14.5545 54.6029 10.8731 56.7895C8.73463 58.0593 6.90041 58.9664 5.42104 59.4861C3.35221 60.212 1.95229 60.1709 1.14135 59.3598Z" fill="#0F1527"/>
<path d="M19.6956 40.8045C19.2631 40.3719 18.7821 40.0062 18.2658 39.709C19.7662 42.3193 19.4034 45.7164 17.1752 47.9449C15.8868 49.233 12.0344 52.0809 8.35307 54.2675C6.21463 55.5375 4.38029 56.4448 2.90092 56.9644C1.9674 57.292 1.17147 57.462 0.503029 57.477C0.484865 58.2899 0.696623 58.9136 1.1417 59.3589C1.95264 60.1698 3.35256 60.2109 5.42139 59.485C6.90065 58.9655 8.7351 58.0581 10.8734 56.7884C14.5549 54.6019 18.4073 51.7539 19.6956 50.4655C22.3591 47.8018 22.3591 43.4679 19.6956 40.8045Z" fill="#0F1527"/>
<path d="M21.3763 39.1263C21.0283 38.7782 20.4641 38.7782 20.1162 39.1263L19.4863 39.756L20.7464 41.016L21.3763 40.3863C21.7241 40.0381 21.7241 39.4741 21.3763 39.1263Z" fill="#0F1527"/>
<path d="M18.0149 35.7649C17.667 35.4169 17.1028 35.4169 16.7548 35.7649L16.125 36.3947L17.3851 37.6549L18.0149 37.0249C18.3629 36.6771 18.3629 36.1131 18.0149 35.7649Z" fill="#0F1527"/>
<path d="M31.5952 28.9054C30.8097 28.1202 30.377 27.0757 30.377 25.9652C30.377 24.8543 30.8096 23.8101 31.5951 23.0247C32.3803 22.2395 33.4245 21.8069 34.5352 21.8066C35.6461 21.8066 36.6903 22.2392 37.4756 23.0245C38.2609 23.8098 38.6936 24.8543 38.6936 25.9649C38.6937 27.0757 38.2611 28.1202 37.4755 28.9054C35.8543 30.5267 33.2166 30.5267 31.5952 28.9054Z" fill="#0F1527"/>
<path d="M41.677 18.8229C40.0556 17.2017 40.0556 14.5636 41.677 12.9424C43.2983 11.3213 45.9364 11.3213 47.5575 12.9424C48.3429 13.7278 48.7756 14.7721 48.7757 15.8829C48.7757 16.9935 48.3431 18.038 47.5576 18.8234C45.9365 20.4444 43.2984 20.4444 41.677 18.8229Z" fill="#0F1527"/>
<path d="M6.44665 54.0537C5.75208 53.3591 6.19634 52.2543 6.7224 51.2648C7.1554 50.4507 7.82419 49.4098 8.71013 48.1709C10.222 46.0569 12.0255 43.8542 12.5551 43.3246C13.829 42.0507 15.9017 42.0507 17.1756 43.3246C18.4496 44.5983 18.4496 46.6711 17.1756 47.9452C16.646 48.475 14.4429 50.2786 12.3296 51.7901C11.0907 52.676 10.0499 53.3448 9.2356 53.7777C8.2463 54.304 7.14134 54.7482 6.44665 54.0537Z" fill="#3FE897"/>
<path d="M59.6202 0.0145315C56.0437 -0.0870701 52.6034 0.343946 49.2754 1.31285L59.1873 11.2249C60.1562 7.89691 60.5873 4.45629 60.4855 0.879844C60.4722 0.407696 60.0925 0.0278909 59.6202 0.0145315Z" fill="#0F1527"/>
<path d="M26.0354 45.0795C26.1012 45.053 26.167 45.0255 26.2338 44.9976C26.2624 44.9855 26.291 44.9735 26.3198 44.9614C26.3978 44.928 26.4762 44.8939 26.5553 44.8591C26.5702 44.8523 26.5846 44.8464 26.5995 44.8397C26.6909 44.799 26.7831 44.757 26.876 44.714C26.9085 44.6991 26.9413 44.6838 26.9738 44.6683C27.0369 44.6389 27.1007 44.6089 27.1646 44.5783C27.202 44.5603 27.2398 44.5423 27.2773 44.5241C27.3423 44.4927 27.4077 44.4605 27.4733 44.428C27.507 44.4112 27.5404 44.3953 27.5742 44.3783C27.6649 44.3328 27.7562 44.2866 27.8482 44.2395C27.894 44.2161 27.9403 44.1917 27.9865 44.1678C28.0386 44.1406 28.0911 44.1136 28.1437 44.0857C28.1953 44.0586 28.247 44.0312 28.2989 44.0033C28.3468 43.9777 28.395 43.952 28.4432 43.9261C28.4974 43.8969 28.5517 43.8676 28.6065 43.8377C28.6275 43.8263 28.6488 43.8143 28.67 43.8027C28.8001 43.7312 28.9312 43.658 29.0637 43.5836C29.0998 43.5635 29.1356 43.543 29.172 43.5226C29.2385 43.4848 29.305 43.4466 29.3719 43.4082C29.4046 43.3895 29.4375 43.3705 29.4702 43.3514C29.5403 43.3107 29.6104 43.2702 29.681 43.2289L27.1604 40.7084C25.7016 41.563 24.3464 42.2495 23.1689 42.6955C22.8411 42.8198 22.4709 42.7402 22.2231 42.4924L15.4863 35.7559L24.7437 45.0129C24.9915 45.2607 25.3616 45.3403 25.6895 45.2162C25.7769 45.183 25.8659 45.148 25.9553 45.1122C25.982 45.1013 26.0087 45.0903 26.0354 45.0795Z" fill="#0F1527"/>
<path d="M57.9711 0.00835214C57.9183 2.99687 57.4846 5.89116 56.666 8.70472L59.1866 11.2254C59.2425 11.0338 59.2959 10.8416 59.3482 10.6492C59.3593 10.6078 59.3702 10.5661 59.3814 10.5249C59.5323 9.9605 59.6674 9.39296 59.7877 8.82214C59.8023 8.75277 59.8167 8.68339 59.8309 8.61402C59.8659 8.4421 59.9002 8.26995 59.9324 8.09722C59.9448 8.03054 59.9562 7.96327 59.9682 7.89671C60.0204 7.60749 60.0687 7.31781 60.1131 7.02706C60.1301 6.91562 60.1473 6.80429 60.1631 6.69273C60.1833 6.5507 60.2026 6.40867 60.2209 6.26617C60.2388 6.12671 60.2555 5.98702 60.2718 5.84734C60.2889 5.7012 60.3055 5.55519 60.3206 5.40882C60.3428 5.1939 60.3628 4.97863 60.3807 4.76277C60.3898 4.65437 60.3976 4.54562 60.4056 4.43699C60.4186 4.25757 60.4305 4.07816 60.4409 3.89839C60.4463 3.80464 60.4521 3.71113 60.4567 3.61738C60.4697 3.35417 60.48 3.09038 60.487 2.82566C60.4888 2.75816 60.4894 2.69007 60.4907 2.62234C60.4951 2.40355 60.4977 2.18441 60.4979 1.96468C60.498 1.88394 60.4982 1.80296 60.4978 1.72222C60.4964 1.44238 60.4928 1.16183 60.4848 0.880344C60.4714 0.408079 60.0916 0.0285084 59.6195 0.0150318C59.0665 -0.000671298 58.5175 -0.00137442 57.9711 0.00835214Z" fill="#0F1527"/>
</g>
<defs>
<clipPath id="clip0_258_20088">
<rect width="60" height="60" fill="white" transform="translate(0.5)"/>
</clipPath>
</defs>
</svg>
