<svg width="24" height="24" viewBox="0 0 24 24" fill="none" xmlns="http://www.w3.org/2000/svg">
<g clip-path="url(#clip0_632_28504)">
<path d="M2.57143 0C1.15179 0 0 1.15179 0 2.57143V21.4286C0 22.8482 1.15179 24 2.57143 24H21.4286C22.8482 24 24 22.8482 24 21.4286V2.57143C24 1.15179 22.8482 0 21.4286 0H2.57143ZM14.6822 3.42857L19.2353 9.56518L18.008 10.4757L13.4551 4.33913L14.6822 3.42857ZM11.8517 5.88332L17.7309 10.7727L16.7607 11.9407L10.8817 7.05091L11.8517 5.88332ZM9.59491 9.05052L16.5235 12.2967L15.8901 13.6825L8.9617 10.456L9.59491 9.05052ZM8.28857 12.5148L15.7711 14.0784L15.4543 15.5832L7.97196 14.0191L8.28857 12.5147V12.5148ZM4.76464 14.4546H6.28929V19.0474H16.9985V14.4546H18.5226V20.5714H4.76464V14.4545V14.4546ZM7.81334 15.9791H15.4542V17.5032H7.81339V15.9791H7.81334Z" fill="#0F1527"/>
</g>
<defs>
<clipPath id="clip0_632_28504">
<rect width="24" height="24" fill="white"/>
</clipPath>
</defs>
</svg>
