<svg width="41" height="40" viewBox="0 0 41 40" fill="none" xmlns="http://www.w3.org/2000/svg">
<g clip-path="url(#clip0_3501_131925)">
<path d="M9.70969 26.5017V38.827C9.70969 39.95 11.1456 40.4285 11.8188 39.5297L17.8395 31.504L19.6748 30.5636L39.5471 2.46609L39.9167 0.28125L36.6879 2.06555L9.70312 25.4909L9.70969 26.5017Z" fill="#0F1527"/>
<path d="M38.7119 0.0934508C38.659 0.114623 1.03187 19.0064 0.98078 19.032C0.160233 19.4423 0.109765 20.5964 0.89039 21.0782L9.70805 26.505L39.9151 0.284545C39.608 0.0184508 39.167 -0.0951429 38.7119 0.0934508Z" fill="#3FE897"/>
<path d="M39.9553 0.33875C39.9384 0.322266 39.9329 0.296719 39.9151 0.28125L39.6858 0.60625L17.8379 31.5039L31.3591 39.8249C32.0633 40.2578 32.9747 39.8451 33.1249 39.0433L40.3141 1.38789C40.3905 0.990469 40.2294 0.605547 39.9553 0.33875Z" fill="#3FE897"/>
</g>
<defs>
<clipPath id="clip0_3501_131925">
<rect width="40" height="40" fill="white" transform="translate(0.333984)"/>
</clipPath>
</defs>
</svg>
