<svg width="24" height="24" viewBox="0 0 24 24" fill="none" xmlns="http://www.w3.org/2000/svg">
<path d="M24 4.37236C23.1174 4.77326 22.1693 5.04414 21.1726 5.16658C22.201 4.53575 22.9704 3.5429 23.3373 2.37329C22.371 2.96162 21.3135 3.37575 20.2107 3.59766C19.4691 2.78596 18.4868 2.24796 17.4164 2.06717C16.3459 1.88638 15.2472 2.07293 14.2907 2.59785C13.3343 3.12277 12.5737 3.95669 12.127 4.97014C11.6803 5.98359 11.5725 7.11988 11.8203 8.20257C9.86244 8.1018 7.94711 7.58015 6.19863 6.67147C4.45016 5.76279 2.90761 4.48739 1.6711 2.92805C1.2483 3.67567 1.0052 4.54248 1.0052 5.46563C1.00473 6.29667 1.20437 7.11499 1.58641 7.84798C1.96846 8.58096 2.52109 9.20594 3.19528 9.66748C2.4134 9.64198 1.64877 9.42541 0.965031 9.03579V9.1008C0.964952 10.2664 1.35827 11.3961 2.07823 12.2982C2.7982 13.2004 3.80048 13.8194 4.915 14.0503C4.18968 14.2515 3.42923 14.2811 2.69109 14.137C3.00555 15.1399 3.61807 16.0169 4.44291 16.6452C5.26776 17.2735 6.26363 17.6217 7.29111 17.641C5.5469 19.0446 3.39282 19.806 1.17537 19.8026C0.782575 19.8027 0.39011 19.7792 0 19.7322C2.25083 21.2157 4.87097 22.003 7.5469 22C16.6053 22 21.5573 14.3092 21.5573 7.63915C21.5573 7.42245 21.552 7.20358 21.5425 6.98687C22.5057 6.27281 23.3372 5.38858 23.9979 4.37562L24 4.37236Z" fill="#0F1527"/>
</svg>
