<svg width="101" height="20" viewBox="0 0 101 20" fill="none" xmlns="http://www.w3.org/2000/svg">
<path d="M1.997 19.9134C1.40885 19.9134 0.922983 19.7082 0.539405 19.2977C0.155828 18.8873 -0.0231745 18.387 0.00239737 17.797C0.0279692 17.2198 0.261312 16.7292 0.702426 16.3252C1.14354 15.9211 1.65178 15.7191 2.22715 15.7191C2.79612 15.7191 3.27879 15.9243 3.67515 16.3348C4.07791 16.7452 4.2601 17.2326 4.22175 17.797C4.19617 18.1946 4.07471 18.5538 3.85735 18.8745C3.64638 19.1951 3.37788 19.4485 3.05184 19.6344C2.7258 19.8204 2.37418 19.9134 1.997 19.9134Z" fill="white"/>
<path d="M14.0355 20C13.1021 20 12.2614 19.8333 11.5135 19.4998C10.7719 19.1599 10.1837 18.6596 9.749 17.999C9.32067 17.3385 9.10651 16.524 9.10651 15.5556C9.10651 14.7218 9.25994 14.0324 9.5668 13.4873C9.87366 12.9421 10.2924 12.506 10.823 12.1789C11.3536 11.8519 11.9514 11.6049 12.6162 11.4382C13.2875 11.265 13.9811 11.14 14.6971 11.063C15.5602 10.9732 16.2602 10.8931 16.7972 10.8225C17.3342 10.7456 17.7242 10.6301 17.9671 10.4762C18.2165 10.3159 18.3411 10.0689 18.3411 9.73545V9.67773C18.3411 8.95302 18.127 8.39185 17.6986 7.99423C17.2703 7.5966 16.6534 7.39779 15.8479 7.39779C14.9976 7.39779 14.3232 7.58377 13.8245 7.95575C13.3322 8.32772 12.9998 8.76704 12.8272 9.27369L9.58598 8.81193C9.84169 7.91406 10.2636 7.1637 10.8518 6.56085C11.4399 5.95158 12.1591 5.49623 13.0094 5.1948C13.8597 4.88696 14.7994 4.73305 15.8287 4.73305C16.5383 4.73305 17.2447 4.81642 17.948 4.98316C18.6512 5.14991 19.2937 5.42568 19.8754 5.81048C20.4572 6.18887 20.9239 6.70515 21.2755 7.35931C21.6335 8.01347 21.8125 8.83117 21.8125 9.81241V19.7018H18.4754V17.672H18.3603C18.1493 18.0824 17.8521 18.4672 17.4685 18.8264C17.0913 19.1791 16.615 19.4645 16.0397 19.6825C15.4707 19.8942 14.8026 20 14.0355 20ZM14.9369 17.4411C15.6337 17.4411 16.2378 17.3032 16.7493 17.0274C17.2607 16.7452 17.6539 16.3733 17.9288 15.9115C18.2101 15.4497 18.3507 14.9463 18.3507 14.4012V12.6599C18.242 12.7497 18.0566 12.8331 17.7945 12.9101C17.5388 12.987 17.2511 13.0544 16.9315 13.1121C16.6118 13.1698 16.2954 13.2211 15.9821 13.266C15.6689 13.3109 15.3972 13.3494 15.167 13.3814C14.6492 13.452 14.1857 13.5674 13.7766 13.7278C13.3674 13.8881 13.0446 14.1126 12.808 14.4012C12.5715 14.6833 12.4532 15.0489 12.4532 15.4978C12.4532 16.1392 12.6866 16.6234 13.1532 16.9505C13.6199 17.2775 14.2145 17.4411 14.9369 17.4411Z" fill="white"/>
<path d="M29.8546 0V19.7018H26.3832V0H29.8546Z" fill="white"/>
<path d="M67.0105 20C66.0771 20 65.2364 19.8333 64.4884 19.4998C63.7469 19.1599 63.1587 18.6596 62.724 17.999C62.2957 17.3385 62.0815 16.524 62.0815 15.5556C62.0815 14.7218 62.2349 14.0324 62.5418 13.4873C62.8486 12.9421 63.2674 12.506 63.798 12.1789C64.3286 11.8519 64.9264 11.6049 65.5912 11.4382C66.2625 11.265 66.9561 11.14 67.6721 11.063C68.5352 10.9732 69.2352 10.8931 69.7722 10.8225C70.3092 10.7456 70.6992 10.6301 70.9421 10.4762C71.1915 10.3159 71.3161 10.0689 71.3161 9.73545V9.67773C71.3161 8.95302 71.102 8.39185 70.6736 7.99423C70.2453 7.5966 69.6284 7.39779 68.8229 7.39779C67.9726 7.39779 67.2981 7.58377 66.7995 7.95575C66.3072 8.32772 65.9748 8.76704 65.8022 9.27369L62.561 8.81193C62.8167 7.91406 63.2386 7.1637 63.8268 6.56085C64.4149 5.95158 65.1341 5.49623 65.9844 5.1948C66.8347 4.88696 67.7744 4.73305 68.8037 4.73305C69.5133 4.73305 70.2197 4.81642 70.9229 4.98316C71.6262 5.14991 72.2687 5.42568 72.8504 5.81048C73.4322 6.18887 73.8989 6.70515 74.2505 7.35931C74.6085 8.01347 74.7875 8.83117 74.7875 9.81241V19.7018H71.4504V17.672H71.3353C71.1243 18.0824 70.827 18.4672 70.4435 18.8264C70.0663 19.1791 69.59 19.4645 69.0146 19.6825C68.4457 19.8942 67.7776 20 67.0105 20ZM67.9119 17.4411C68.6087 17.4411 69.2128 17.3032 69.7243 17.0274C70.2357 16.7452 70.6289 16.3733 70.9038 15.9115C71.1851 15.4497 71.3257 14.9463 71.3257 14.4012V12.6599C71.217 12.7497 71.0316 12.8331 70.7695 12.9101C70.5138 12.987 70.2261 13.0544 69.9065 13.1121C69.5868 13.1698 69.2704 13.2211 68.9571 13.266C68.6439 13.3109 68.3722 13.3494 68.142 13.3814C67.6242 13.452 67.1607 13.5674 66.7515 13.7278C66.3424 13.8881 66.0196 14.1126 65.783 14.4012C65.5465 14.6833 65.4282 15.0489 65.4282 15.4978C65.4282 16.1392 65.6615 16.6234 66.1282 16.9505C66.5949 17.2775 67.1895 17.4411 67.9119 17.4411Z" fill="white"/>
<path d="M79.3582 19.7018V4.92544H82.6761V7.43627H82.8487C83.1556 6.58971 83.6638 5.92913 84.3735 5.45455C85.0831 4.97355 85.9301 4.73305 86.9147 4.73305C87.912 4.73305 88.7526 4.97675 89.4367 5.46417C90.1271 5.94517 90.613 6.60253 90.8943 7.43627H91.0477C91.3737 6.61536 91.9236 5.9612 92.6971 5.47379C93.477 4.97996 94.4008 4.73305 95.4684 4.73305C96.8237 4.73305 97.9297 5.16274 98.7864 6.02213C99.643 6.88151 100.071 8.13532 100.071 9.78355V19.7018H96.5904V10.3223C96.5904 9.40516 96.3475 8.73497 95.8616 8.31169C95.3757 7.88199 94.7812 7.66715 94.078 7.66715C93.2405 7.66715 92.5852 7.93009 92.1121 8.45599C91.6454 8.97547 91.4121 9.65207 91.4121 10.4858V19.7018H88.0079V10.178C88.0079 9.41478 87.7777 8.80552 87.3174 8.35017C86.8635 7.89482 86.269 7.66715 85.5338 7.66715C85.0351 7.66715 84.5812 7.79541 84.1721 8.05195C83.7629 8.30207 83.4369 8.65801 83.194 9.11977C82.951 9.57512 82.8296 10.1074 82.8296 10.7167V19.7018H79.3582Z" fill="white"/>
<path fill-rule="evenodd" clip-rule="evenodd" d="M41.8595 7.61905V4.92544H38.9539V1.38528H35.4825V4.92544H33.392V7.61905H35.4825V15.8345C35.4761 16.7581 35.6743 17.5277 36.0771 18.1433C36.4862 18.759 37.0392 19.2144 37.736 19.5094C38.4329 19.798 39.216 19.9295 40.0854 19.9038C40.5777 19.891 40.9932 19.8461 41.3321 19.7691C41.6773 19.6922 41.9426 19.6216 42.128 19.5575L41.543 16.835C41.4471 16.8607 41.3065 16.8895 41.1211 16.9216C40.9421 16.9537 40.7439 16.9697 40.5266 16.9697C40.2389 16.9697 39.9768 16.9248 39.7402 16.835C39.5037 16.7452 39.3119 16.5785 39.1649 16.3348C39.0242 16.0847 38.9539 15.7255 38.9539 15.2573V7.61905H41.8595ZM38.9539 7.61905V4.92544H35.4825V7.61905H38.9539Z" fill="white"/>
<path d="M38.9539 7.61905V4.92544H35.4825V7.61905H38.9539Z" fill="white"/>
<path fill-rule="evenodd" clip-rule="evenodd" d="M48.3792 19.0669C49.4533 19.6825 50.7287 19.9904 52.2054 19.9904C53.3498 19.9904 54.3663 19.8172 55.2549 19.4709C56.1435 19.1182 56.8723 18.6243 57.4413 17.9894C58.0166 17.3481 58.4066 16.5977 58.6112 15.7383L55.3699 15.3728C55.2165 15.7896 54.9896 16.1392 54.6891 16.4214C54.3886 16.7035 54.0338 16.9184 53.6247 17.0659C53.2155 17.207 52.7584 17.2775 52.2534 17.2775C51.499 17.2775 50.8405 17.1172 50.278 16.7965C49.7154 16.4695 49.2775 16.0013 48.9642 15.392C48.6615 14.7971 48.5051 14.0884 48.4949 13.266H58.755V12.1982C58.755 10.9027 58.576 9.78676 58.218 8.85041C57.86 7.90765 57.3677 7.13163 56.7412 6.52237C56.1211 5.9131 55.4051 5.46417 54.5932 5.17556C53.7877 4.88055 52.931 4.73305 52.0232 4.73305C50.6168 4.73305 49.3925 5.05692 48.3505 5.70467C47.3084 6.346 46.4965 7.24387 45.9148 8.39827C45.3394 9.54626 45.0517 10.8802 45.0517 12.4002C45.0517 13.9458 45.3394 15.2894 45.9148 16.431C46.4901 17.5661 47.3116 18.4448 48.3792 19.0669ZM48.5014 10.9187H55.4275C55.4211 10.2517 55.2772 9.65849 54.996 9.13901C54.7147 8.61312 54.3215 8.19945 53.8165 7.89803C53.3178 7.5966 52.736 7.44589 52.0712 7.44589C51.3616 7.44589 50.7382 7.61905 50.2012 7.96537C49.6642 8.30527 49.2455 8.75421 48.945 9.31217C48.6826 9.80429 48.5348 10.3398 48.5014 10.9187ZM48.4943 11.1304V13.1794C48.4943 13.2063 48.4945 13.233 48.4948 13.2596C48.4948 13.2617 48.4948 13.2639 48.4949 13.266H46.6819V10.9187H48.5014C48.4974 10.9886 48.495 11.0592 48.4943 11.1304Z" fill="white"/>
<path d="M46.6819 10.9187V13.266H48.4949L48.4948 13.2596C48.4945 13.233 48.4943 13.2063 48.4943 13.1794V11.1304C48.495 11.0592 48.4974 10.9886 48.5014 10.9187H46.6819Z" fill="white"/>
</svg>
